<svg width="161" height="161" viewBox="0 0 161 161" fill="none" xmlns="http://www.w3.org/2000/svg">
<rect width="161" height="161" rx="40" fill="#FF6B00"/>
<path d="M129.349 32C133.031 32 136 35.0305 136 38.7383V79.2734C136 82.9709 133.029 86 129.349 86H66.6514C62.9705 86 60.0001 82.9708 60 79.2734V38.7383C60 35.0305 62.9692 32 66.6514 32H129.349ZM98.3223 66.9854L97.8008 67.3047L97.2793 66.9854L66.1768 47.9609V79.2734C66.1768 79.5538 66.4068 79.7676 66.6514 79.7676H129.349C129.593 79.7674 129.822 79.5537 129.822 79.2734V47.7158L98.3223 66.9854ZM66.6514 38.2324C66.4119 38.2326 66.1778 38.4412 66.1777 38.7383V38.7393L66.1768 40.4658L97.7998 59.833L129.823 40.2334V38.7383C129.823 38.441 129.588 38.2324 129.349 38.2324H66.6514Z" fill="white" stroke="white" stroke-width="2"/>
<mask id="path-3-outside-1_2403_1111" maskUnits="userSpaceOnUse" x="24" y="62" width="71" height="70" fill="black">
<rect fill="white" x="24" y="62" width="71" height="70"/>
<path d="M53 68.1436H35.9111C32.7311 68.1436 30.1436 70.7311 30.1436 73.9111V101.402C30.1437 104.582 32.7312 107.169 35.9111 107.169H57.7617C58.3117 107.169 58.8376 107.388 59.2266 107.776L73.5928 122.142V109.241C73.5928 108.097 74.52 107.169 75.665 107.169H82.4316C85.6125 107.169 88.2 104.582 88.2002 101.402V93H92.3438V101.402C92.3436 106.866 87.8975 111.313 82.4316 111.313H77.7363V127.144C77.7363 127.981 77.2309 128.738 76.457 129.058C76.201 129.164 75.932 129.215 75.666 129.215C75.1262 129.215 74.5972 129.005 74.2002 128.608L56.9043 111.312H35.9111C30.4473 111.312 26.0002 106.866 26 101.401V73.9111C26 68.4471 30.4461 64 35.9111 64H53V68.1436Z"/>
</mask>
<path d="M53 68.1436H35.9111C32.7311 68.1436 30.1436 70.7311 30.1436 73.9111V101.402C30.1437 104.582 32.7312 107.169 35.9111 107.169H57.7617C58.3117 107.169 58.8376 107.388 59.2266 107.776L73.5928 122.142V109.241C73.5928 108.097 74.52 107.169 75.665 107.169H82.4316C85.6125 107.169 88.2 104.582 88.2002 101.402V93H92.3438V101.402C92.3436 106.866 87.8975 111.313 82.4316 111.313H77.7363V127.144C77.7363 127.981 77.2309 128.738 76.457 129.058C76.201 129.164 75.932 129.215 75.666 129.215C75.1262 129.215 74.5972 129.005 74.2002 128.608L56.9043 111.312H35.9111C30.4473 111.312 26.0002 106.866 26 101.401V73.9111C26 68.4471 30.4461 64 35.9111 64H53V68.1436Z" fill="white"/>
<path d="M53 68.1436V70.1436H55V68.1436H53ZM30.1436 101.402H28.1436V101.402L30.1436 101.402ZM59.2266 107.776L60.6407 106.362L60.6389 106.36L59.2266 107.776ZM73.5928 122.142L72.1786 123.556L75.5928 126.97V122.142H73.5928ZM88.2002 101.402L90.2002 101.402V101.402H88.2002ZM88.2002 93V91H86.2002V93H88.2002ZM92.3438 93H94.3438V91H92.3438V93ZM92.3438 101.402L94.3438 101.402V101.402H92.3438ZM77.7363 111.313V109.313H75.7363V111.313H77.7363ZM76.457 129.058L75.6927 127.209L75.6919 127.21L76.457 129.058ZM75.666 129.215V131.215H75.666L75.666 129.215ZM74.2002 128.608L72.7859 130.023L72.7863 130.023L74.2002 128.608ZM56.9043 111.312L58.3186 109.897L57.7328 109.312H56.9043V111.312ZM26 101.401H24V101.401L26 101.401ZM53 64H55V62H53V64ZM53 68.1436V66.1436H35.9111V68.1436V70.1436H53V68.1436ZM35.9111 68.1436V66.1436C31.6266 66.1436 28.1436 69.6266 28.1436 73.9111H30.1436H32.1436C32.1436 71.8357 33.8357 70.1436 35.9111 70.1436V68.1436ZM30.1436 73.9111H28.1436V101.402H30.1436H32.1436V73.9111H30.1436ZM30.1436 101.402L28.1436 101.402C28.1438 105.687 31.627 109.169 35.9111 109.169V107.169V105.169C33.8355 105.169 32.1437 103.477 32.1436 101.402L30.1436 101.402ZM35.9111 107.169V109.169H57.7617V107.169V105.169H35.9111V107.169ZM57.7617 107.169V109.169C57.7775 109.169 57.7968 109.175 57.8142 109.192L59.2266 107.776L60.6389 106.36C59.8784 105.602 58.8459 105.169 57.7617 105.169V107.169ZM59.2266 107.776L57.8124 109.191L72.1786 123.556L73.5928 122.142L75.0069 120.727L60.6407 106.362L59.2266 107.776ZM73.5928 122.142H75.5928V109.241H73.5928H71.5928V122.142H73.5928ZM73.5928 109.241H75.5928C75.5928 109.201 75.6252 109.169 75.665 109.169V107.169V105.169C73.4148 105.169 71.5928 106.993 71.5928 109.241H73.5928ZM75.665 107.169V109.169H82.4316V107.169V105.169H75.665V107.169ZM82.4316 107.169V109.169C86.7166 109.169 90.1999 105.687 90.2002 101.402L88.2002 101.402L86.2002 101.402C86.2001 103.477 84.5085 105.169 82.4316 105.169V107.169ZM88.2002 101.402H90.2002V93H88.2002H86.2002V101.402H88.2002ZM88.2002 93V95H92.3438V93V91H88.2002V93ZM92.3438 93H90.3438V101.402H92.3438H94.3438V93H92.3438ZM92.3438 101.402L90.3438 101.402C90.3436 105.762 86.7929 109.313 82.4316 109.313V111.313V113.313C89.0022 113.313 94.3435 107.971 94.3438 101.402L92.3438 101.402ZM82.4316 111.313V109.313H77.7363V111.313V113.313H82.4316V111.313ZM77.7363 111.313H75.7363V127.144H77.7363H79.7363V111.313H77.7363ZM77.7363 127.144H75.7363C75.7363 127.173 75.7183 127.199 75.6927 127.209L76.457 129.058L77.2213 130.906C78.7436 130.276 79.7363 128.79 79.7363 127.144H77.7363ZM76.457 129.058L75.6919 127.21C75.6838 127.213 75.6752 127.215 75.666 127.215L75.666 129.215L75.666 131.215C76.1888 131.215 76.7183 131.114 77.2222 130.905L76.457 129.058ZM75.666 129.215V127.215C75.6549 127.215 75.6449 127.213 75.6368 127.209C75.6294 127.206 75.622 127.202 75.6141 127.194L74.2002 128.608L72.7863 130.023C73.567 130.803 74.6082 131.215 75.666 131.215V129.215ZM74.2002 128.608L75.6144 127.194L58.3186 109.897L56.9043 111.312L55.49 112.726L72.7859 130.023L74.2002 128.608ZM56.9043 111.312V109.312H35.9111V111.312V113.312H56.9043V111.312ZM35.9111 111.312V109.312C31.5515 109.312 28.0002 105.761 28 101.401L26 101.401L24 101.401C24.0002 107.971 29.343 113.312 35.9111 113.312V111.312ZM26 101.401H28V73.9111H26H24V101.401H26ZM26 73.9111H28C28 69.5516 31.5508 66 35.9111 66V64V62C29.3414 62 24 67.3427 24 73.9111H26ZM35.9111 64V66H53V64V62H35.9111V64ZM53 64H51V68.1436H53H55V64H53Z" fill="white" mask="url(#path-3-outside-1_2403_1111)"/>
</svg>
